<svg xmlns="http://www.w3.org/2000/svg" viewBox="0 0 290 84" role="img" aria-label="kilio">
  <defs>
    <linearGradient id="kd-tile" x1="0" y1="0" x2="1" y2="1">
      <stop offset="0" stop-color="#8E7EFF"/>
      <stop offset="1" stop-color="#5B4BE6"/>
    </linearGradient>
  </defs>
  <g transform="translate(8,10)">
    <rect x="0" y="0" width="64" height="64" rx="17" fill="url(#kd-tile)"/>
    <path d="M32 15c6.4 0 11.6 1.7 13.4 2.4 .9.3 1.5 1.2 1.5 2.2v13.1c0 8.9-6 13.9-14.9 16.6-8.9-2.7-14.9-7.7-14.9-16.6V19.6c0-1 .6-1.9 1.5-2.2C20.4 16.7 25.6 15 32 15z"
          fill="none" stroke="#FFFFFF" stroke-width="3.2" stroke-linejoin="round" opacity=".95"/>
    <circle cx="32" cy="29.5" r="4.4" fill="#FFFFFF"/>
    <path d="M32 34.2c-2.2 0-3.9 1.9-3.9 4.7 0 1.6 .5 3.1 1.2 4.3h5.4c.7-1.2 1.2-2.7 1.2-4.3 0-2.8-1.7-4.7-3.9-4.7z" fill="#FFFFFF"/>
  </g>
  <text x="90" y="56" font-family="Georgia, 'Iowan Old Style', 'Palatino Linotype', 'Times New Roman', serif"
        font-size="46" letter-spacing="-0.5" fill="#F3F1EC">kilio</text>
</svg>
