<svg xmlns="http://www.w3.org/2000/svg" viewBox="0 0 64 64" role="img" aria-label="kilio">
  <defs>
    <linearGradient id="k-tile" x1="0" y1="0" x2="1" y2="1">
      <stop offset="0" stop-color="#7B6BF0"/>
      <stop offset="1" stop-color="#4B3BCF"/>
    </linearGradient>
  </defs>
  <rect x="2" y="2" width="60" height="60" rx="17" fill="url(#k-tile)"/>
  <!-- a protected voice: a shield holding a single spoken mark -->
  <path d="M32 15c6.4 0 11.6 1.7 13.4 2.4 .9.3 1.5 1.2 1.5 2.2v13.1c0 8.9-6 13.9-14.9 16.6-8.9-2.7-14.9-7.7-14.9-16.6V19.6c0-1 .6-1.9 1.5-2.2C20.4 16.7 25.6 15 32 15z"
        fill="none" stroke="#FFFFFF" stroke-width="3.2" stroke-linejoin="round" opacity=".95"/>
  <circle cx="32" cy="29.5" r="4.4" fill="#FFFFFF"/>
  <path d="M32 34.2c-2.2 0-3.9 1.9-3.9 4.7 0 1.6 .5 3.1 1.2 4.3h5.4c.7-1.2 1.2-2.7 1.2-4.3 0-2.8-1.7-4.7-3.9-4.7z" fill="#FFFFFF"/>
</svg>
